<?xml version="1.0" encoding="utf-8" standalone="no"?>
<!DOCTYPE svg PUBLIC "-//W3C//DTD SVG 1.1//EN"
  "http://www.w3.org/Graphics/SVG/1.1/DTD/svg11.dtd">
<svg xmlns:xlink="http://www.w3.org/1999/xlink" width="288pt" height="129.6pt" viewBox="0 0 288 129.6" xmlns="http://www.w3.org/2000/svg" version="1.1">
 <metadata>
  <rdf:RDF xmlns:dc="http://purl.org/dc/elements/1.1/" xmlns:cc="http://creativecommons.org/ns#" xmlns:rdf="http://www.w3.org/1999/02/22-rdf-syntax-ns#">
   <cc:Work>
    <dc:type rdf:resource="http://purl.org/dc/dcmitype/StillImage"/>
    <dc:date>2023-10-25T22:17:24.849179</dc:date>
    <dc:format>image/svg+xml</dc:format>
    <dc:creator>
     <cc:Agent>
      <dc:title>Matplotlib v3.8.0, https://matplotlib.org/</dc:title>
     </cc:Agent>
    </dc:creator>
   </cc:Work>
  </rdf:RDF>
 </metadata>
 <defs>
  <style type="text/css">*{stroke-linejoin: round; stroke-linecap: butt}</style>
 </defs>
 <g id="figure_1">
  <g id="patch_1">
   <path d="M 0 129.6 
L 288 129.6 
L 288 0 
L 0 0 
z
" style="fill: #ffffff"/>
  </g>
  <g id="axes_1">
   <g id="patch_2">
    <path d="M 30.896424 102.440022 
L 144.645391 102.440022 
L 144.645391 17.136506 
L 30.896424 17.136506 
z
" style="fill: #ffffff"/>
   </g>
   <g id="matplotlib.axis_1">
    <g id="xtick_1">
     <g id="line2d_1">
      <path d="M 34.115735 102.440022 
L 34.115735 17.136506 
" clip-path="url(#pb40f449671)" style="fill: none; stroke: #000000; stroke-opacity: 0.1; stroke-width: 0.5; stroke-linecap: square"/>
     </g>
     <g id="line2d_2">
      <defs>
       <path id="m720dd0f6cc" d="M 0 0 
L 0 -3 
" style="stroke: #000000; stroke-width: 0.5"/>
      </defs>
      <g>
       <use xlink:href="#m720dd0f6cc" x="34.115735" y="102.440022" style="stroke: #000000; stroke-width: 0.5"/>
      </g>
     </g>
     <g id="text_1">
      <!-- $0.5$ -->
      <g transform="translate(28.705451 111.474763) scale(0.08 -0.08)">
       <defs>
        <path id="LMRoman17-Regular-30" d="M 2688 2038 
C 2688 2430 2682 3099 2413 3613 
C 2176 4063 1798 4224 1466 4224 
C 1158 4224 768 4082 525 3620 
C 269 3137 243 2539 243 2038 
C 243 1671 250 1112 448 623 
C 723 -39 1216 -128 1466 -128 
C 1760 -128 2208 -7 2470 604 
C 2662 1048 2688 1568 2688 2038 
z
M 2278 2109 
C 2278 1691 2278 1176 2202 797 
C 2067 96 1690 -26 1466 -26 
C 1056 -26 813 328 723 816 
C 653 1196 653 1749 653 2109 
C 653 2604 653 3015 736 3407 
C 858 3954 1216 4121 1466 4121 
C 1728 4121 2067 3947 2189 3420 
C 2272 3054 2278 2623 2278 2109 
z
" transform="scale(0.015625)"/>
        <path id="LMMathItalic12-Regular-3a" d="M 1178 307 
C 1178 492 1024 620 870 620 
C 685 620 557 467 557 313 
C 557 128 710 0 864 0 
C 1050 0 1178 153 1178 307 
z
" transform="scale(0.015625)"/>
        <path id="LMRoman17-Regular-35" d="M 2669 1260 
C 2669 2028 2170 2624 1549 2624 
C 1222 2624 947 2502 730 2271 
L 730 3692 
C 794 3667 1056 3584 1325 3584 
C 1920 3584 2246 3904 2432 4119 
C 2432 4183 2432 4224 2394 4224 
C 2394 4224 2374 4224 2323 4191 
C 2099 4071 1837 3974 1517 3974 
C 1325 3993 1037 4019 723 4160 
C 653 4224 634 4224 634 4224 
C 602 4192 595 4185 595 4057 
L 595 2206 
C 595 2092 595 2061 659 2061 
C 691 2061 704 2074 736 2118 
C 941 2401 1222 2521 1542 2521 
C 1766 2521 2246 2382 2246 1304 
C 2246 1103 2246 735 2054 441 
C 1894 166 1645 25 1370 25 
C 947 25 518 334 403 832 
C 429 806 480 793 506 793 
C 589 793 749 838 749 1036 
C 749 1209 627 1280 506 1280 
C 358 1280 262 1190 262 1011 
C 262 454 704 -128 1382 -128 
C 2042 -128 2669 441 2669 1267 
L 2669 1260 
z
" transform="scale(0.015625)"/>
       </defs>
       <use xlink:href="#LMRoman17-Regular-30" transform="scale(0.996264)"/>
       <use xlink:href="#LMMathItalic12-Regular-3a" transform="translate(45.690948 0) scale(0.996264)"/>
       <use xlink:href="#LMRoman17-Regular-35" transform="translate(72.788125 0) scale(0.996264)"/>
      </g>
     </g>
    </g>
    <g id="xtick_2">
     <g id="line2d_3">
      <path d="M 56.015805 102.440022 
L 56.015805 17.136506 
" clip-path="url(#pb40f449671)" style="fill: none; stroke: #000000; stroke-opacity: 0.1; stroke-width: 0.5; stroke-linecap: square"/>
     </g>
     <g id="line2d_4">
      <g>
       <use xlink:href="#m720dd0f6cc" x="56.015805" y="102.440022" style="stroke: #000000; stroke-width: 0.5"/>
      </g>
     </g>
     <g id="text_2">
      <!-- $0.6$ -->
      <g transform="translate(50.605521 111.474763) scale(0.08 -0.08)">
       <defs>
        <path id="LMRoman17-Regular-36" d="M 2688 1305 
C 2688 2105 2170 2688 1517 2688 
C 1126 2688 838 2431 678 1983 
L 678 2201 
C 678 3712 1395 4076 1811 4076 
C 1946 4076 2272 4049 2400 3782 
C 2298 3782 2106 3782 2106 3558 
C 2106 3385 2246 3328 2336 3328 
C 2394 3328 2566 3353 2566 3571 
C 2566 3993 2246 4224 1805 4224 
C 1043 4224 243 3427 243 2006 
C 243 257 966 -128 1478 -128 
C 2099 -135 2688 422 2688 1280 
L 2688 1305 
z
M 2253 1286 
C 2253 937 2253 684 2118 431 
C 1978 171 1773 25 1478 25 
C 691 25 691 1191 691 1427 
C 691 1901 909 2585 1504 2585 
C 1613 2585 1926 2585 2138 2131 
C 2253 1862 2253 1600 2253 1280 
L 2253 1286 
z
" transform="scale(0.015625)"/>
       </defs>
       <use xlink:href="#LMRoman17-Regular-30" transform="scale(0.996264)"/>
       <use xlink:href="#LMMathItalic12-Regular-3a" transform="translate(45.690948 0) scale(0.996264)"/>
       <use xlink:href="#LMRoman17-Regular-36" transform="translate(72.788125 0) scale(0.996264)"/>
      </g>
     </g>
    </g>
    <g id="xtick_3">
     <g id="line2d_5">
      <path d="M 77.915876 102.440022 
L 77.915876 17.136506 
" clip-path="url(#pb40f449671)" style="fill: none; stroke: #000000; stroke-opacity: 0.1; stroke-width: 0.5; stroke-linecap: square"/>
     </g>
     <g id="line2d_6">
      <g>
       <use xlink:href="#m720dd0f6cc" x="77.915876" y="102.440022" style="stroke: #000000; stroke-width: 0.5"/>
      </g>
     </g>
     <g id="text_3">
      <!-- $0.7$ -->
      <g transform="translate(72.505592 111.474763) scale(0.08 -0.08)">
       <defs>
        <path id="LMRoman17-Regular-37" d="M 2886 4006 
L 2886 4147 
L 1382 4147 
C 634 4147 621 4230 595 4352 
L 480 4352 
L 294 3148 
L 410 3148 
C 429 3271 474 3601 550 3724 
C 589 3776 1062 3776 1171 3776 
L 2579 3776 
L 1869 2707 
C 1395 1989 1069 1018 1069 169 
C 1069 92 1069 -128 1299 -128 
C 1530 -128 1530 92 1530 176 
L 1530 474 
C 1530 1535 1709 2235 2003 2681 
L 2886 4006 
z
" transform="scale(0.015625)"/>
       </defs>
       <use xlink:href="#LMRoman17-Regular-30" transform="scale(0.996264)"/>
       <use xlink:href="#LMMathItalic12-Regular-3a" transform="translate(45.690948 0) scale(0.996264)"/>
       <use xlink:href="#LMRoman17-Regular-37" transform="translate(72.788125 0) scale(0.996264)"/>
      </g>
     </g>
    </g>
    <g id="xtick_4">
     <g id="line2d_7">
      <path d="M 99.815947 102.440022 
L 99.815947 17.136506 
" clip-path="url(#pb40f449671)" style="fill: none; stroke: #000000; stroke-opacity: 0.1; stroke-width: 0.5; stroke-linecap: square"/>
     </g>
     <g id="line2d_8">
      <g>
       <use xlink:href="#m720dd0f6cc" x="99.815947" y="102.440022" style="stroke: #000000; stroke-width: 0.5"/>
      </g>
     </g>
     <g id="text_4">
      <!-- $0.8$ -->
      <g transform="translate(94.405663 111.474763) scale(0.08 -0.08)">
       <defs>
        <path id="LMRoman17-Regular-38" d="M 2720 1022 
C 2720 1607 2330 1877 2074 2051 
C 1984 2115 1933 2147 1741 2289 
C 2144 2494 2554 2803 2554 3298 
C 2554 3884 1990 4224 1472 4224 
C 890 4224 378 3800 378 3215 
C 378 3054 416 2777 666 2533 
C 730 2469 998 2276 1171 2154 
C 883 2006 211 1652 211 945 
C 211 282 838 -128 1459 -128 
C 2144 -128 2720 366 2720 1022 
z
M 2336 3298 
C 2336 2700 1670 2359 1638 2359 
C 1638 2359 1626 2359 1574 2398 
L 902 2855 
C 851 2887 595 3086 595 3388 
C 595 3781 998 4076 1459 4076 
C 1965 4076 2336 3716 2336 3298 
z
M 2483 861 
C 2483 385 2010 25 1472 25 
C 890 25 448 443 448 951 
C 448 1459 838 1884 1280 2083 
L 2080 1536 
C 2176 1466 2483 1253 2483 861 
z
" transform="scale(0.015625)"/>
       </defs>
       <use xlink:href="#LMRoman17-Regular-30" transform="scale(0.996264)"/>
       <use xlink:href="#LMMathItalic12-Regular-3a" transform="translate(45.690948 0) scale(0.996264)"/>
       <use xlink:href="#LMRoman17-Regular-38" transform="translate(72.788125 0) scale(0.996264)"/>
      </g>
     </g>
    </g>
    <g id="xtick_5">
     <g id="line2d_9">
      <path d="M 121.716017 102.440022 
L 121.716017 17.136506 
" clip-path="url(#pb40f449671)" style="fill: none; stroke: #000000; stroke-opacity: 0.1; stroke-width: 0.5; stroke-linecap: square"/>
     </g>
     <g id="line2d_10">
      <g>
       <use xlink:href="#m720dd0f6cc" x="121.716017" y="102.440022" style="stroke: #000000; stroke-width: 0.5"/>
      </g>
     </g>
     <g id="text_5">
      <!-- $0.9$ -->
      <g transform="translate(116.305733 111.474763) scale(0.08 -0.08)">
       <defs>
        <path id="LMRoman17-Regular-39" d="M 2688 2112 
C 2688 3860 1971 4224 1485 4224 
C 851 4224 243 3669 243 2816 
C 243 2022 762 1433 1414 1433 
C 1952 1433 2189 1932 2253 2144 
L 2253 1894 
C 2253 479 1670 25 1190 25 
C 1043 25 685 46 538 313 
C 704 287 826 377 826 537 
C 826 710 685 768 595 768 
C 538 762 365 736 365 514 
C 365 71 742 -128 1203 -128 
C 1939 -128 2688 690 2688 2112 
z
M 2240 2668 
C 2240 2214 2035 1536 1427 1536 
C 1254 1536 1011 1568 813 1952 
C 678 2201 678 2495 678 2809 
C 678 3185 678 3446 858 3726 
C 947 3860 1114 4076 1485 4076 
C 2240 4076 2240 2924 2240 2668 
L 2240 2668 
z
" transform="scale(0.015625)"/>
       </defs>
       <use xlink:href="#LMRoman17-Regular-30" transform="scale(0.996264)"/>
       <use xlink:href="#LMMathItalic12-Regular-3a" transform="translate(45.690948 0) scale(0.996264)"/>
       <use xlink:href="#LMRoman17-Regular-39" transform="translate(72.788125 0) scale(0.996264)"/>
      </g>
     </g>
    </g>
    <g id="xtick_6">
     <g id="line2d_11">
      <path d="M 143.616088 102.440022 
L 143.616088 17.136506 
" clip-path="url(#pb40f449671)" style="fill: none; stroke: #000000; stroke-opacity: 0.1; stroke-width: 0.5; stroke-linecap: square"/>
     </g>
     <g id="line2d_12">
      <g>
       <use xlink:href="#m720dd0f6cc" x="143.616088" y="102.440022" style="stroke: #000000; stroke-width: 0.5"/>
      </g>
     </g>
     <g id="text_6">
      <!-- $1.0$ -->
      <g transform="translate(138.205804 111.474763) scale(0.08 -0.08)">
       <defs>
        <path id="LMRoman17-Regular-31" d="M 2458 0 
L 2458 166 
L 2266 166 
C 1715 166 1702 236 1702 467 
L 1702 4085 
C 1702 4217 1696 4224 1606 4224 
C 1357 3927 979 3833 621 3820 
C 602 3820 570 3820 563 3808 
C 557 3795 557 3782 557 3648 
C 755 3648 1088 3686 1344 3839 
L 1344 467 
C 1344 243 1331 166 781 166 
L 589 166 
L 589 0 
L 1523 12 
L 2458 0 
z
" transform="scale(0.015625)"/>
       </defs>
       <use xlink:href="#LMRoman17-Regular-31" transform="scale(0.996264)"/>
       <use xlink:href="#LMMathItalic12-Regular-3a" transform="translate(45.690948 0) scale(0.996264)"/>
       <use xlink:href="#LMRoman17-Regular-30" transform="translate(72.788125 0) scale(0.996264)"/>
      </g>
     </g>
    </g>
    <g id="text_7">
     <!-- $q$ -->
     <g transform="translate(85.392064 124.634475) scale(0.11 -0.11)">
      <defs>
       <path id="LMMathItalic12-Regular-71" d="M 2374 -1095 
C 2374 -1031 2323 -1031 2227 -1031 
C 1926 -1031 1907 -987 1907 -937 
C 1907 -906 1914 -900 1933 -819 
L 2822 2751 
C 2822 2783 2797 2809 2765 2809 
C 2714 2809 2464 2579 2342 2356 
C 2227 2643 2029 2816 1754 2816 
C 1030 2816 250 1883 250 938 
C 250 306 621 -64 1056 -64 
C 1395 -64 1677 191 1811 338 
L 1818 332 
L 1574 -613 
L 1517 -838 
C 1459 -1025 1363 -1025 1062 -1031 
C 992 -1031 928 -1031 928 -1152 
C 928 -1197 966 -1216 1011 -1216 
C 1101 -1216 1216 -1204 1306 -1204 
L 1958 -1204 
C 2054 -1204 2163 -1216 2259 -1216 
C 2298 -1216 2374 -1216 2374 -1095 
z
M 1920 759 
C 1888 651 1888 638 1798 517 
C 1658 338 1376 64 1075 64 
C 813 64 666 300 666 676 
C 666 1028 864 1743 986 2011 
C 1203 2458 1504 2688 1754 2688 
C 2176 2688 2259 2164 2259 2113 
C 2259 2113 2240 2024 2234 2011 
L 1920 759 
z
" transform="scale(0.015625)"/>
      </defs>
      <use xlink:href="#LMMathItalic12-Regular-71" transform="scale(0.996264)"/>
     </g>
    </g>
   </g>
   <g id="matplotlib.axis_2">
    <g id="ytick_1">
     <g id="line2d_13">
      <path d="M 30.896424 102.440022 
L 144.645391 102.440022 
" clip-path="url(#pb40f449671)" style="fill: none; stroke: #000000; stroke-opacity: 0.1; stroke-width: 0.5; stroke-linecap: square"/>
     </g>
     <g id="line2d_14">
      <defs>
       <path id="m13b2552dfc" d="M 0 0 
L 3 0 
" style="stroke: #000000; stroke-width: 0.5"/>
      </defs>
      <g>
       <use xlink:href="#m13b2552dfc" x="30.896424" y="102.440022" style="stroke: #000000; stroke-width: 0.5"/>
      </g>
     </g>
     <g id="text_8">
      <!-- $0.0$ -->
      <g transform="translate(16.575857 105.207392) scale(0.08 -0.08)">
       <use xlink:href="#LMRoman17-Regular-30" transform="scale(0.996264)"/>
       <use xlink:href="#LMMathItalic12-Regular-3a" transform="translate(45.690948 0) scale(0.996264)"/>
       <use xlink:href="#LMRoman17-Regular-30" transform="translate(72.788125 0) scale(0.996264)"/>
      </g>
     </g>
    </g>
    <g id="ytick_2">
     <g id="line2d_15">
      <path d="M 30.896424 83.483685 
L 144.645391 83.483685 
" clip-path="url(#pb40f449671)" style="fill: none; stroke: #000000; stroke-opacity: 0.1; stroke-width: 0.5; stroke-linecap: square"/>
     </g>
     <g id="line2d_16">
      <g>
       <use xlink:href="#m13b2552dfc" x="30.896424" y="83.483685" style="stroke: #000000; stroke-width: 0.5"/>
      </g>
     </g>
     <g id="text_9">
      <!-- $0.2$ -->
      <g transform="translate(16.575857 86.251055) scale(0.08 -0.08)">
       <defs>
        <path id="LMRoman17-Regular-32" d="M 2669 990 
L 2554 990 
C 2490 537 2438 460 2413 422 
C 2381 371 1920 371 1830 371 
L 602 371 
L 1824 1596 
C 2214 1966 2669 2400 2669 3033 
C 2669 3788 2067 4224 1395 4224 
C 691 4224 262 3603 262 3027 
C 262 2777 448 2745 525 2745 
C 589 2745 781 2783 781 3007 
C 781 3206 614 3264 525 3264 
C 486 3264 448 3257 422 3244 
C 544 3788 915 4057 1306 4057 
C 1862 4057 2227 3616 2227 3033 
C 2227 2477 1901 1998 1536 1583 
L 262 147 
L 262 0 
L 2515 0 
L 2669 990 
z
" transform="scale(0.015625)"/>
       </defs>
       <use xlink:href="#LMRoman17-Regular-30" transform="scale(0.996264)"/>
       <use xlink:href="#LMMathItalic12-Regular-3a" transform="translate(45.690948 0) scale(0.996264)"/>
       <use xlink:href="#LMRoman17-Regular-32" transform="translate(72.788125 0) scale(0.996264)"/>
      </g>
     </g>
    </g>
    <g id="ytick_3">
     <g id="line2d_17">
      <path d="M 30.896424 64.527348 
L 144.645391 64.527348 
" clip-path="url(#pb40f449671)" style="fill: none; stroke: #000000; stroke-opacity: 0.1; stroke-width: 0.5; stroke-linecap: square"/>
     </g>
     <g id="line2d_18">
      <g>
       <use xlink:href="#m13b2552dfc" x="30.896424" y="64.527348" style="stroke: #000000; stroke-width: 0.5"/>
      </g>
     </g>
     <g id="text_10">
      <!-- $0.4$ -->
      <g transform="translate(16.575857 67.294719) scale(0.08 -0.08)">
       <defs>
        <path id="LMRoman17-Regular-34" d="M 2803 1088 
L 2803 1254 
L 2150 1254 
L 2150 4146 
C 2150 4281 2144 4288 2029 4288 
L 128 1254 
L 128 1088 
L 1779 1088 
L 1779 460 
C 1779 230 1766 166 1318 166 
L 1197 166 
L 1197 0 
C 1402 12 1747 12 1965 12 
C 2182 12 2528 12 2733 0 
L 2733 166 
L 2611 166 
C 2163 166 2150 230 2150 460 
L 2150 1088 
L 2803 1088 
z
M 1798 1254 
L 256 1254 
L 1798 3723 
L 1798 1254 
z
" transform="scale(0.015625)"/>
       </defs>
       <use xlink:href="#LMRoman17-Regular-30" transform="scale(0.996264)"/>
       <use xlink:href="#LMMathItalic12-Regular-3a" transform="translate(45.690948 0) scale(0.996264)"/>
       <use xlink:href="#LMRoman17-Regular-34" transform="translate(72.788125 0) scale(0.996264)"/>
      </g>
     </g>
    </g>
    <g id="ytick_4">
     <g id="line2d_19">
      <path d="M 30.896424 45.571011 
L 144.645391 45.571011 
" clip-path="url(#pb40f449671)" style="fill: none; stroke: #000000; stroke-opacity: 0.1; stroke-width: 0.5; stroke-linecap: square"/>
     </g>
     <g id="line2d_20">
      <g>
       <use xlink:href="#m13b2552dfc" x="30.896424" y="45.571011" style="stroke: #000000; stroke-width: 0.5"/>
      </g>
     </g>
     <g id="text_11">
      <!-- $0.6$ -->
      <g transform="translate(16.575857 48.338382) scale(0.08 -0.08)">
       <use xlink:href="#LMRoman17-Regular-30" transform="scale(0.996264)"/>
       <use xlink:href="#LMMathItalic12-Regular-3a" transform="translate(45.690948 0) scale(0.996264)"/>
       <use xlink:href="#LMRoman17-Regular-36" transform="translate(72.788125 0) scale(0.996264)"/>
      </g>
     </g>
    </g>
    <g id="ytick_5">
     <g id="line2d_21">
      <path d="M 30.896424 26.614675 
L 144.645391 26.614675 
" clip-path="url(#pb40f449671)" style="fill: none; stroke: #000000; stroke-opacity: 0.1; stroke-width: 0.5; stroke-linecap: square"/>
     </g>
     <g id="line2d_22">
      <g>
       <use xlink:href="#m13b2552dfc" x="30.896424" y="26.614675" style="stroke: #000000; stroke-width: 0.5"/>
      </g>
     </g>
     <g id="text_12">
      <!-- $0.8$ -->
      <g transform="translate(16.575857 29.382045) scale(0.08 -0.08)">
       <use xlink:href="#LMRoman17-Regular-30" transform="scale(0.996264)"/>
       <use xlink:href="#LMMathItalic12-Regular-3a" transform="translate(45.690948 0) scale(0.996264)"/>
       <use xlink:href="#LMRoman17-Regular-38" transform="translate(72.788125 0) scale(0.996264)"/>
      </g>
     </g>
    </g>
    <g id="text_13">
     <!-- $\beta$ -->
     <g transform="translate(10.444977 62.817151) rotate(-90) scale(0.11 -0.11)">
      <defs>
       <path id="LMMathItalic12-Regular-c" d="M 3283 1196 
C 3322 1337 3334 1478 3334 1612 
C 3334 1862 3277 2099 3149 2291 
C 3072 2406 2982 2508 2867 2579 
C 2938 2617 3008 2662 3072 2713 
C 3328 2905 3514 3168 3584 3449 
C 3603 3538 3616 3623 3616 3701 
C 3616 3896 3552 4078 3437 4221 
C 3270 4428 3008 4537 2707 4537 
C 1952 4537 1389 3649 1178 2765 
L 186 -1154 
C 186 -1198 211 -1216 237 -1216 
L 275 -1216 
C 301 -1216 320 -1204 326 -1179 
L 774 599 
C 864 206 1152 -64 1594 -64 
C 1952 -64 2330 57 2656 302 
C 2963 535 3200 864 3283 1206 
L 3283 1196 
z
M 2886 1231 
C 2816 928 2669 625 2419 399 
C 2182 180 1882 57 1594 57 
C 1139 57 883 418 883 877 
C 883 980 896 1089 922 1206 
L 1312 2745 
C 1510 3564 2003 4416 2707 4416 
C 2925 4416 3104 4318 3206 4149 
C 3264 4052 3290 3935 3290 3811 
C 3290 3707 3270 3597 3245 3486 
C 3181 3239 3072 2992 2867 2804 
C 2816 2758 2752 2713 2694 2675 
C 2566 2726 2426 2752 2272 2752 
C 2054 2752 1792 2752 1754 2604 
C 1754 2589 1747 2568 1747 2568 
C 1747 2432 1997 2432 2208 2432 
C 2362 2432 2522 2457 2675 2515 
C 2765 2444 2835 2354 2880 2251 
C 2944 2118 2970 1964 2970 1804 
C 2970 1625 2938 1433 2886 1241 
L 2886 1231 
z
M 2509 2594 
C 2413 2568 2310 2553 2214 2553 
C 2080 2553 1882 2553 1894 2584 
C 1907 2630 2112 2630 2266 2630 
C 2355 2630 2432 2620 2509 2594 
z
" transform="scale(0.015625)"/>
      </defs>
      <use xlink:href="#LMMathItalic12-Regular-c" transform="scale(0.996264)"/>
     </g>
    </g>
   </g>
   <g id="line2d_23">
    <path d="M 34.115735 33.99719 
L 35.199678 33.930511 
L 36.283621 34.05853 
L 37.367564 33.907663 
L 38.451506 33.978927 
L 39.535449 34.032136 
L 40.619392 33.975193 
L 41.703335 33.937649 
L 42.787278 33.950177 
L 43.871221 34.017649 
L 44.955164 33.891486 
L 46.039107 33.991949 
L 47.123049 33.968424 
L 48.206992 33.992526 
L 49.290935 33.849585 
L 50.374878 34.016968 
L 51.458821 34.11615 
L 52.542764 33.973388 
L 53.626707 33.96176 
L 54.71065 34.069205 
L 55.794593 34.103871 
L 56.878535 34.036811 
L 57.962478 33.93983 
L 59.046421 33.926538 
L 60.130364 33.95813 
L 61.214307 34.027411 
L 62.29825 34.020979 
L 63.382193 33.958176 
L 64.466136 33.913047 
L 65.550079 33.922808 
L 66.634021 34.003006 
L 67.717964 33.919689 
L 68.801907 33.944282 
L 69.88585 33.908831 
L 70.969793 33.943285 
L 72.053736 34.004675 
L 73.137679 34.096266 
L 74.221622 34.015776 
L 75.305565 33.916692 
L 76.389507 34.106316 
L 77.47345 34.048995 
L 78.557393 34.009875 
L 79.641336 34.012621 
L 80.725279 34.023084 
L 81.809222 34.069404 
L 82.893165 33.999322 
L 83.977108 34.007391 
L 85.06105 33.980385 
L 86.144993 34.065396 
L 87.228936 33.958922 
L 88.312879 33.958632 
L 89.396822 34.046019 
L 90.480765 34.013473 
L 91.564708 33.934218 
L 92.648651 33.936389 
L 93.732594 33.991645 
L 94.816536 33.948622 
L 95.900479 33.962442 
L 96.984422 33.948196 
L 98.068365 33.998719 
L 99.152308 34.013621 
L 100.236251 33.98862 
L 101.320194 33.997052 
L 102.404137 33.955081 
L 103.48808 34.013844 
L 104.572022 33.997142 
L 105.655965 33.966792 
L 106.739908 33.928634 
L 107.823851 33.967402 
L 108.907794 34.034312 
L 109.991737 34.063071 
L 111.07568 34.003012 
L 112.159623 34.050406 
L 113.243566 33.969569 
L 114.327508 34.005647 
L 115.411451 34.007821 
L 116.495394 34.037718 
L 117.579337 33.993539 
L 118.66328 34.014119 
L 119.747223 33.953124 
L 120.831166 33.969452 
L 121.915109 33.96713 
L 122.999051 33.985394 
L 124.082994 33.979706 
L 125.166937 33.968033 
L 126.25088 34.007596 
L 127.334823 33.975495 
L 128.418766 33.998671 
L 129.502709 34.030516 
L 130.586652 33.977866 
L 131.670595 34.009939 
L 132.754537 33.984089 
L 133.83848 33.984877 
L 134.922423 33.980991 
L 136.006366 33.965699 
L 137.090309 33.965333 
L 138.174252 33.972698 
L 139.258195 33.97531 
L 140.342138 33.955883 
L 141.426081 33.984004 
" clip-path="url(#pb40f449671)" style="fill: none; stroke: #009afa"/>
   </g>
   <g id="line2d_24">
    <path d="M 34.115735 33.997992 
L 35.199678 33.929108 
L 36.283621 34.060212 
L 37.367564 33.905124 
L 38.451506 33.97942 
L 39.535449 34.033676 
L 40.619392 33.973411 
L 41.703335 33.931281 
L 42.787278 33.949748 
L 43.871221 34.014811 
L 44.955164 33.888064 
L 46.039107 33.993815 
L 47.123049 33.96928 
L 48.206992 33.993163 
L 49.290935 33.854195 
L 50.374878 34.017505 
L 51.458821 34.118903 
L 52.542764 33.970626 
L 53.626707 33.959659 
L 54.71065 34.074515 
L 55.794593 34.110015 
L 56.878535 34.03509 
L 57.962478 33.945557 
L 59.046421 33.928209 
L 60.130364 33.955956 
L 61.214307 34.02855 
L 62.29825 34.026196 
L 63.382193 33.960144 
L 64.466136 33.906065 
L 65.550079 33.918481 
L 66.634021 34.004107 
L 67.717964 33.911412 
L 68.801907 33.935936 
L 69.88585 33.898227 
L 70.969793 33.940624 
L 72.053736 34.001853 
L 73.137679 34.113634 
L 74.221622 34.020263 
L 75.305565 33.905755 
L 76.389507 34.124764 
L 77.47345 34.060173 
L 78.557393 34.009286 
L 79.641336 34.020173 
L 80.725279 34.029869 
L 81.809222 34.086403 
L 82.893165 33.994695 
L 83.977108 34.011188 
L 85.06105 33.985913 
L 86.144993 34.088985 
L 87.228936 33.955227 
L 88.312879 33.947429 
L 89.396822 34.066858 
L 90.480765 34.024033 
L 91.564708 33.91357 
L 92.648651 33.923988 
L 93.732594 33.996543 
L 94.816536 33.932001 
L 95.900479 33.955378 
L 96.984422 33.927126 
L 98.068365 34.004285 
L 99.152308 34.024444 
L 100.236251 33.984229 
L 101.320194 34.006315 
L 102.404137 33.942654 
L 103.48808 34.036848 
L 104.572022 34.019566 
L 105.655965 33.961907 
L 106.739908 33.882626 
L 107.823851 33.957016 
L 108.907794 34.077602 
L 109.991737 34.12679 
L 111.07568 34.015584 
L 112.159623 34.117941 
L 113.243566 33.940591 
L 114.327508 34.024563 
L 115.411451 34.034873 
L 116.495394 34.109071 
L 117.579337 34.006882 
L 118.66328 34.059822 
L 119.747223 33.903468 
L 120.831166 33.940647 
L 121.915109 33.934407 
L 122.999051 33.97361 
L 124.082994 33.976265 
L 125.166937 33.912795 
L 126.25088 34.042772 
L 127.334823 33.951672 
L 128.418766 34.045515 
L 129.502709 34.191163 
L 130.586652 33.960061 
L 131.670595 34.101231 
L 132.754537 33.992173 
L 133.83848 33.995669 
L 134.922423 33.912482 
L 136.006366 33.839712 
L 137.090309 33.832884 
L 138.174252 33.844763 
L 139.258195 33.974497 
L 140.342138 33.450743 
L 141.426081 33.995937 
" clip-path="url(#pb40f449671)" style="fill: none; stroke: #e36f47"/>
   </g>
   <g id="patch_3">
    <path d="M 30.896424 102.440022 
L 30.896424 17.136506 
" style="fill: none; stroke: #000000; stroke-linejoin: miter; stroke-linecap: square"/>
   </g>
   <g id="patch_4">
    <path d="M 30.896424 102.440022 
L 144.645391 102.440022 
" style="fill: none; stroke: #000000; stroke-linejoin: miter; stroke-linecap: square"/>
   </g>
   <g id="text_14">
    <!-- ridge -->
    <g transform="translate(75.87454 11.136506) scale(0.12 -0.12)">
     <defs>
      <path id="LMSans17-Regular-72" d="M 1958 2392 
L 1958 2816 
C 1549 2809 1165 2604 934 2270 
L 934 2783 
L 480 2783 
L 480 0 
L 954 0 
L 954 1369 
C 954 1974 1395 2379 1958 2392 
z
" transform="scale(0.015625)"/>
      <path id="LMSans17-Regular-69" d="M 947 0 
L 947 2752 
L 474 2752 
L 474 0 
L 947 0 
z
M 986 3622 
L 986 4160 
L 448 4160 
L 448 3622 
L 986 3622 
z
" transform="scale(0.015625)"/>
      <path id="LMSans17-Regular-64" d="M 2611 -13 
L 2611 4416 
L 2138 4416 
L 2138 2495 
C 1939 2662 1613 2816 1254 2816 
C 672 2816 211 2179 211 1375 
C 211 572 666 -64 1235 -64 
C 1677 -64 1971 172 2125 307 
L 2125 -13 
L 2611 -13 
z
M 2125 851 
C 2125 760 2125 663 1926 488 
C 1798 378 1645 326 1498 326 
C 1152 326 698 585 698 1369 
C 698 2185 1210 2425 1562 2425 
C 1798 2425 1990 2308 2125 2114 
L 2125 851 
z
" transform="scale(0.015625)"/>
      <path id="LMSans17-Regular-67" d="M 2918 2419 
L 2848 2816 
C 2483 2809 2170 2739 1914 2617 
C 1702 2783 1485 2816 1338 2816 
C 781 2816 358 2356 358 1824 
C 358 1482 550 1222 563 1209 
C 448 1024 384 851 384 659 
C 384 435 474 275 544 185 
C 211 6 166 -308 166 -429 
C 166 -896 749 -1280 1498 -1280 
C 2253 -1280 2835 -896 2835 -423 
C 2835 460 1856 467 1587 467 
L 1069 467 
C 973 467 717 467 717 793 
C 717 921 781 1011 781 1011 
C 877 940 1075 832 1338 832 
C 1869 832 2310 1279 2310 1823 
C 2310 2128 2170 2349 2112 2425 
L 2131 2425 
C 2150 2425 2419 2444 2515 2444 
C 2720 2444 2739 2438 2918 2419 
L 2918 2419 
z
M 1856 1823 
C 1856 1272 1504 1184 1338 1184 
C 1120 1176 813 1309 813 1820 
C 813 2374 1165 2463 1331 2463 
C 1549 2463 1856 2330 1856 1820 
L 1856 1823 
z
M 2381 -438 
C 2381 -712 1984 -928 1504 -928 
C 1018 -929 621 -717 621 -429 
C 621 -397 621 0 1062 0 
L 1581 0 
C 1734 0 2381 0 2381 -436 
L 2381 -438 
z
" transform="scale(0.015625)"/>
      <path id="LMSans17-Regular-65" d="M 2502 1375 
C 2502 1587 2490 2001 2285 2347 
C 2061 2713 1696 2816 1421 2816 
C 755 2816 192 2184 192 1363 
C 192 579 774 -64 1510 -64 
C 1798 -64 2150 19 2470 249 
C 2470 275 2451 421 2451 421 
C 2451 421 2432 629 2432 655 
C 2125 408 1773 326 1517 326 
C 1107 326 666 667 646 1375 
L 2502 1375 
z
M 2080 1728 
L 698 1728 
C 781 2086 1062 2425 1421 2425 
C 1517 2425 1965 2412 2080 1728 
z
" transform="scale(0.015625)"/>
     </defs>
     <use xlink:href="#LMSans17-Regular-72" transform="scale(0.996264)"/>
     <use xlink:href="#LMSans17-Regular-69" transform="translate(31.911582 0) scale(0.996264)"/>
     <use xlink:href="#LMSans17-Regular-64" transform="translate(54.091164 0) scale(0.996264)"/>
     <use xlink:href="#LMSans17-Regular-67" transform="translate(102.295728 0) scale(0.996264)"/>
     <use xlink:href="#LMSans17-Regular-65" transform="translate(149.139731 0) scale(0.996264)"/>
    </g>
   </g>
  </g>
  <g id="axes_2">
   <g id="patch_5">
    <path d="M 168.025819 102.440022 
L 281.774785 102.440022 
L 281.774785 17.136506 
L 168.025819 17.136506 
z
" style="fill: #ffffff"/>
   </g>
   <g id="matplotlib.axis_3">
    <g id="xtick_7">
     <g id="line2d_25">
      <path d="M 171.245129 102.440022 
L 171.245129 17.136506 
" clip-path="url(#p11bff311ee)" style="fill: none; stroke: #000000; stroke-opacity: 0.1; stroke-width: 0.5; stroke-linecap: square"/>
     </g>
     <g id="line2d_26">
      <g>
       <use xlink:href="#m720dd0f6cc" x="171.245129" y="102.440022" style="stroke: #000000; stroke-width: 0.5"/>
      </g>
     </g>
     <g id="text_15">
      <!-- $0.5$ -->
      <g transform="translate(165.834845 111.474763) scale(0.08 -0.08)">
       <use xlink:href="#LMRoman17-Regular-30" transform="scale(0.996264)"/>
       <use xlink:href="#LMMathItalic12-Regular-3a" transform="translate(45.690948 0) scale(0.996264)"/>
       <use xlink:href="#LMRoman17-Regular-35" transform="translate(72.788125 0) scale(0.996264)"/>
      </g>
     </g>
    </g>
    <g id="xtick_8">
     <g id="line2d_27">
      <path d="M 193.1452 102.440022 
L 193.1452 17.136506 
" clip-path="url(#p11bff311ee)" style="fill: none; stroke: #000000; stroke-opacity: 0.1; stroke-width: 0.5; stroke-linecap: square"/>
     </g>
     <g id="line2d_28">
      <g>
       <use xlink:href="#m720dd0f6cc" x="193.1452" y="102.440022" style="stroke: #000000; stroke-width: 0.5"/>
      </g>
     </g>
     <g id="text_16">
      <!-- $0.6$ -->
      <g transform="translate(187.734916 111.474763) scale(0.08 -0.08)">
       <use xlink:href="#LMRoman17-Regular-30" transform="scale(0.996264)"/>
       <use xlink:href="#LMMathItalic12-Regular-3a" transform="translate(45.690948 0) scale(0.996264)"/>
       <use xlink:href="#LMRoman17-Regular-36" transform="translate(72.788125 0) scale(0.996264)"/>
      </g>
     </g>
    </g>
    <g id="xtick_9">
     <g id="line2d_29">
      <path d="M 215.04527 102.440022 
L 215.04527 17.136506 
" clip-path="url(#p11bff311ee)" style="fill: none; stroke: #000000; stroke-opacity: 0.1; stroke-width: 0.5; stroke-linecap: square"/>
     </g>
     <g id="line2d_30">
      <g>
       <use xlink:href="#m720dd0f6cc" x="215.04527" y="102.440022" style="stroke: #000000; stroke-width: 0.5"/>
      </g>
     </g>
     <g id="text_17">
      <!-- $0.7$ -->
      <g transform="translate(209.634987 111.474763) scale(0.08 -0.08)">
       <use xlink:href="#LMRoman17-Regular-30" transform="scale(0.996264)"/>
       <use xlink:href="#LMMathItalic12-Regular-3a" transform="translate(45.690948 0) scale(0.996264)"/>
       <use xlink:href="#LMRoman17-Regular-37" transform="translate(72.788125 0) scale(0.996264)"/>
      </g>
     </g>
    </g>
    <g id="xtick_10">
     <g id="line2d_31">
      <path d="M 236.945341 102.440022 
L 236.945341 17.136506 
" clip-path="url(#p11bff311ee)" style="fill: none; stroke: #000000; stroke-opacity: 0.1; stroke-width: 0.5; stroke-linecap: square"/>
     </g>
     <g id="line2d_32">
      <g>
       <use xlink:href="#m720dd0f6cc" x="236.945341" y="102.440022" style="stroke: #000000; stroke-width: 0.5"/>
      </g>
     </g>
     <g id="text_18">
      <!-- $0.8$ -->
      <g transform="translate(231.535057 111.474763) scale(0.08 -0.08)">
       <use xlink:href="#LMRoman17-Regular-30" transform="scale(0.996264)"/>
       <use xlink:href="#LMMathItalic12-Regular-3a" transform="translate(45.690948 0) scale(0.996264)"/>
       <use xlink:href="#LMRoman17-Regular-38" transform="translate(72.788125 0) scale(0.996264)"/>
      </g>
     </g>
    </g>
    <g id="xtick_11">
     <g id="line2d_33">
      <path d="M 258.845412 102.440022 
L 258.845412 17.136506 
" clip-path="url(#p11bff311ee)" style="fill: none; stroke: #000000; stroke-opacity: 0.1; stroke-width: 0.5; stroke-linecap: square"/>
     </g>
     <g id="line2d_34">
      <g>
       <use xlink:href="#m720dd0f6cc" x="258.845412" y="102.440022" style="stroke: #000000; stroke-width: 0.5"/>
      </g>
     </g>
     <g id="text_19">
      <!-- $0.9$ -->
      <g transform="translate(253.435128 111.474763) scale(0.08 -0.08)">
       <use xlink:href="#LMRoman17-Regular-30" transform="scale(0.996264)"/>
       <use xlink:href="#LMMathItalic12-Regular-3a" transform="translate(45.690948 0) scale(0.996264)"/>
       <use xlink:href="#LMRoman17-Regular-39" transform="translate(72.788125 0) scale(0.996264)"/>
      </g>
     </g>
    </g>
    <g id="xtick_12">
     <g id="line2d_35">
      <path d="M 280.745482 102.440022 
L 280.745482 17.136506 
" clip-path="url(#p11bff311ee)" style="fill: none; stroke: #000000; stroke-opacity: 0.1; stroke-width: 0.5; stroke-linecap: square"/>
     </g>
     <g id="line2d_36">
      <g>
       <use xlink:href="#m720dd0f6cc" x="280.745482" y="102.440022" style="stroke: #000000; stroke-width: 0.5"/>
      </g>
     </g>
     <g id="text_20">
      <!-- $1.0$ -->
      <g transform="translate(275.335198 111.474763) scale(0.08 -0.08)">
       <use xlink:href="#LMRoman17-Regular-31" transform="scale(0.996264)"/>
       <use xlink:href="#LMMathItalic12-Regular-3a" transform="translate(45.690948 0) scale(0.996264)"/>
       <use xlink:href="#LMRoman17-Regular-30" transform="translate(72.788125 0) scale(0.996264)"/>
      </g>
     </g>
    </g>
    <g id="text_21">
     <!-- $q$ -->
     <g transform="translate(222.521459 124.634475) scale(0.11 -0.11)">
      <use xlink:href="#LMMathItalic12-Regular-71" transform="scale(0.996264)"/>
     </g>
    </g>
   </g>
   <g id="matplotlib.axis_4">
    <g id="ytick_6">
     <g id="line2d_37">
      <path d="M 168.025819 102.440022 
L 281.774785 102.440022 
" clip-path="url(#p11bff311ee)" style="fill: none; stroke: #000000; stroke-opacity: 0.1; stroke-width: 0.5; stroke-linecap: square"/>
     </g>
     <g id="line2d_38">
      <g>
       <use xlink:href="#m13b2552dfc" x="168.025819" y="102.440022" style="stroke: #000000; stroke-width: 0.5"/>
      </g>
     </g>
     <g id="text_22">
      <!-- $0.0$ -->
      <g transform="translate(153.705251 105.207392) scale(0.08 -0.08)">
       <use xlink:href="#LMRoman17-Regular-30" transform="scale(0.996264)"/>
       <use xlink:href="#LMMathItalic12-Regular-3a" transform="translate(45.690948 0) scale(0.996264)"/>
       <use xlink:href="#LMRoman17-Regular-30" transform="translate(72.788125 0) scale(0.996264)"/>
      </g>
     </g>
    </g>
    <g id="ytick_7">
     <g id="line2d_39">
      <path d="M 168.025819 83.483685 
L 281.774785 83.483685 
" clip-path="url(#p11bff311ee)" style="fill: none; stroke: #000000; stroke-opacity: 0.1; stroke-width: 0.5; stroke-linecap: square"/>
     </g>
     <g id="line2d_40">
      <g>
       <use xlink:href="#m13b2552dfc" x="168.025819" y="83.483685" style="stroke: #000000; stroke-width: 0.5"/>
      </g>
     </g>
     <g id="text_23">
      <!-- $0.2$ -->
      <g transform="translate(153.705251 86.251055) scale(0.08 -0.08)">
       <use xlink:href="#LMRoman17-Regular-30" transform="scale(0.996264)"/>
       <use xlink:href="#LMMathItalic12-Regular-3a" transform="translate(45.690948 0) scale(0.996264)"/>
       <use xlink:href="#LMRoman17-Regular-32" transform="translate(72.788125 0) scale(0.996264)"/>
      </g>
     </g>
    </g>
    <g id="ytick_8">
     <g id="line2d_41">
      <path d="M 168.025819 64.527348 
L 281.774785 64.527348 
" clip-path="url(#p11bff311ee)" style="fill: none; stroke: #000000; stroke-opacity: 0.1; stroke-width: 0.5; stroke-linecap: square"/>
     </g>
     <g id="line2d_42">
      <g>
       <use xlink:href="#m13b2552dfc" x="168.025819" y="64.527348" style="stroke: #000000; stroke-width: 0.5"/>
      </g>
     </g>
     <g id="text_24">
      <!-- $0.4$ -->
      <g transform="translate(153.705251 67.294719) scale(0.08 -0.08)">
       <use xlink:href="#LMRoman17-Regular-30" transform="scale(0.996264)"/>
       <use xlink:href="#LMMathItalic12-Regular-3a" transform="translate(45.690948 0) scale(0.996264)"/>
       <use xlink:href="#LMRoman17-Regular-34" transform="translate(72.788125 0) scale(0.996264)"/>
      </g>
     </g>
    </g>
    <g id="ytick_9">
     <g id="line2d_43">
      <path d="M 168.025819 45.571011 
L 281.774785 45.571011 
" clip-path="url(#p11bff311ee)" style="fill: none; stroke: #000000; stroke-opacity: 0.1; stroke-width: 0.5; stroke-linecap: square"/>
     </g>
     <g id="line2d_44">
      <g>
       <use xlink:href="#m13b2552dfc" x="168.025819" y="45.571011" style="stroke: #000000; stroke-width: 0.5"/>
      </g>
     </g>
     <g id="text_25">
      <!-- $0.6$ -->
      <g transform="translate(153.705251 48.338382) scale(0.08 -0.08)">
       <use xlink:href="#LMRoman17-Regular-30" transform="scale(0.996264)"/>
       <use xlink:href="#LMMathItalic12-Regular-3a" transform="translate(45.690948 0) scale(0.996264)"/>
       <use xlink:href="#LMRoman17-Regular-36" transform="translate(72.788125 0) scale(0.996264)"/>
      </g>
     </g>
    </g>
    <g id="ytick_10">
     <g id="line2d_45">
      <path d="M 168.025819 26.614675 
L 281.774785 26.614675 
" clip-path="url(#p11bff311ee)" style="fill: none; stroke: #000000; stroke-opacity: 0.1; stroke-width: 0.5; stroke-linecap: square"/>
     </g>
     <g id="line2d_46">
      <g>
       <use xlink:href="#m13b2552dfc" x="168.025819" y="26.614675" style="stroke: #000000; stroke-width: 0.5"/>
      </g>
     </g>
     <g id="text_26">
      <!-- $0.8$ -->
      <g transform="translate(153.705251 29.382045) scale(0.08 -0.08)">
       <use xlink:href="#LMRoman17-Regular-30" transform="scale(0.996264)"/>
       <use xlink:href="#LMMathItalic12-Regular-3a" transform="translate(45.690948 0) scale(0.996264)"/>
       <use xlink:href="#LMRoman17-Regular-38" transform="translate(72.788125 0) scale(0.996264)"/>
      </g>
     </g>
    </g>
   </g>
   <g id="line2d_47">
    <path d="M 171.245129 80.527588 
L 172.329072 80.353535 
L 173.413015 81.06595 
L 174.496958 80.31514 
L 175.580901 80.516245 
L 176.664844 80.825889 
L 177.748787 80.822802 
L 178.83273 80.413563 
L 179.916672 80.773544 
L 181.000615 80.647694 
L 182.084558 80.182957 
L 183.168501 80.650955 
L 184.252444 80.388735 
L 185.336387 80.503004 
L 186.42033 80.460848 
L 187.504273 80.801885 
L 188.588216 80.90861 
L 189.672158 80.642981 
L 190.756101 80.284871 
L 191.840044 80.922064 
L 192.923987 80.997683 
L 194.00793 80.859034 
L 195.091873 80.196354 
L 196.175816 80.366142 
L 197.259759 80.404632 
L 198.343702 80.915219 
L 199.427644 80.326426 
L 200.511587 80.639411 
L 201.59553 80.643051 
L 202.679473 80.628908 
L 203.763416 80.695575 
L 204.847359 80.321901 
L 205.931302 80.228655 
L 207.015245 80.185501 
L 208.099188 80.462407 
L 209.18313 80.880036 
L 210.267073 81.113481 
L 211.351016 80.694379 
L 212.434959 80.366726 
L 213.518902 80.966839 
L 214.602845 81.007986 
L 215.686788 80.699786 
L 216.770731 80.959065 
L 217.854673 80.959716 
L 218.938616 81.190045 
L 220.022559 80.75734 
L 221.106502 80.426182 
L 222.190445 80.608725 
L 223.274388 80.928715 
L 224.358331 80.775748 
L 225.442274 80.536214 
L 226.526217 81.080524 
L 227.610159 81.088671 
L 228.694102 80.466486 
L 229.778045 80.430758 
L 230.861988 80.878206 
L 231.945931 80.411109 
L 233.029874 80.497643 
L 234.113817 80.509904 
L 235.19776 80.798201 
L 236.281703 80.780066 
L 237.365645 80.796046 
L 238.449588 80.819338 
L 239.533531 80.622259 
L 240.617474 80.997165 
L 241.701417 80.598688 
L 242.78536 80.456747 
L 243.869303 80.124206 
L 244.953246 80.726193 
L 246.037189 80.94248 
L 247.121131 80.897428 
L 248.205074 80.824953 
L 249.289017 81.133375 
L 250.37296 80.330475 
L 251.456903 80.542012 
L 252.540846 80.915025 
L 253.624789 80.723173 
L 254.708732 80.730249 
L 255.792674 80.953957 
L 256.876617 80.380704 
L 257.96056 80.364535 
L 259.044503 80.31601 
L 260.128446 80.70865 
L 261.212389 80.587723 
L 262.296332 80.176104 
L 263.380275 80.639252 
L 264.464218 80.492892 
L 265.54816 80.439824 
L 266.632103 80.87417 
L 267.716046 80.357775 
L 268.799989 80.745164 
L 269.883932 80.581329 
L 270.967875 80.281423 
L 272.051818 80.450727 
L 273.135761 80.556968 
L 274.219704 80.397159 
L 275.303646 80.422981 
L 276.387589 80.682787 
L 277.471532 80.351113 
L 278.555475 80.589688 
" clip-path="url(#p11bff311ee)" style="fill: none; stroke: #009afa"/>
   </g>
   <g id="line2d_48">
    <path d="M 171.245129 80.643493 
L 172.329072 80.366269 
L 173.413015 80.880344 
L 174.496958 80.300707 
L 175.580901 80.631964 
L 176.664844 80.856828 
L 177.748787 80.676172 
L 178.83273 80.540713 
L 179.916672 80.693825 
L 181.000615 80.961308 
L 182.084558 80.560703 
L 183.168501 81.055413 
L 184.252444 80.993996 
L 185.336387 81.209221 
L 186.42033 80.80871 
L 187.504273 81.524243 
L 188.588216 82.00244 
L 189.672158 81.564604 
L 190.756101 81.682639 
L 191.840044 82.187879 
L 192.923987 82.474115 
L 194.00793 82.425369 
L 195.091873 82.238282 
L 196.175816 82.321605 
L 197.259759 82.567802 
L 198.343702 83.037849 
L 199.427644 83.196374 
L 200.511587 83.281518 
L 201.59553 83.239797 
L 202.679473 83.659517 
L 203.763416 84.160411 
L 204.847359 83.874875 
L 205.931302 84.229454 
L 207.015245 84.518495 
L 208.099188 84.849407 
L 209.18313 85.488382 
L 210.267073 86.3781 
L 211.351016 86.234868 
L 212.434959 86.145805 
L 213.518902 87.168996 
L 214.602845 87.235519 
L 215.686788 88.03074 
L 216.770731 87.979006 
L 217.854673 88.34383 
L 218.938616 89.076456 
L 220.022559 89.04137 
L 221.106502 89.654014 
L 222.190445 90.252571 
L 223.274388 91.229441 
L 224.358331 90.876278 
L 225.442274 91.235731 
L 226.526217 92.903114 
L 227.610159 92.800558 
L 228.694102 93.1059 
L 229.778045 93.475959 
L 230.861988 94.878895 
L 231.945931 95.091301 
L 233.029874 95.975312 
L 234.113817 96.668174 
L 235.19776 97.362906 
L 236.281703 98.238893 
L 237.365645 99.429609 
L 238.449588 99.446674 
L 239.533531 99.792547 
L 240.617474 100.604102 
L 241.701417 101.169202 
L 242.78536 101.433526 
L 243.869303 101.971823 
L 244.953246 102.203173 
L 246.037189 102.293252 
L 247.121131 102.369995 
L 248.205074 102.362558 
L 249.289017 102.440022 
L 250.37296 102.440022 
L 251.456903 102.440022 
L 252.540846 102.440022 
L 253.624789 102.440022 
L 254.708732 102.440022 
L 255.792674 102.440022 
L 256.876617 102.440022 
L 257.96056 102.440022 
L 259.044503 102.440022 
L 260.128446 102.440022 
L 261.212389 102.440022 
L 262.296332 102.440022 
L 263.380275 102.440022 
L 264.464218 102.440022 
L 265.54816 102.440022 
L 266.632103 102.440022 
L 267.716046 102.440022 
L 268.799989 102.440022 
L 269.883932 102.440022 
L 270.967875 102.440022 
L 272.051818 102.440022 
L 273.135761 102.440022 
L 274.219704 102.440022 
L 275.303646 102.440022 
L 276.387589 102.440022 
L 277.471532 102.440022 
L 278.555475 102.440022 
" clip-path="url(#p11bff311ee)" style="fill: none; stroke: #e36f47"/>
   </g>
   <g id="patch_6">
    <path d="M 168.025819 102.440022 
L 168.025819 17.136506 
" style="fill: none; stroke: #000000; stroke-linejoin: miter; stroke-linecap: square"/>
   </g>
   <g id="patch_7">
    <path d="M 168.025819 102.440022 
L 281.774785 102.440022 
" style="fill: none; stroke: #000000; stroke-linejoin: miter; stroke-linecap: square"/>
   </g>
   <g id="text_27">
    <!-- lasso -->
    <g transform="translate(213.307795 11.136506) scale(0.12 -0.12)">
     <defs>
      <path id="LMSans17-Regular-6c" d="M 947 0 
L 947 4416 
L 474 4416 
L 474 0 
L 947 0 
z
" transform="scale(0.015625)"/>
      <path id="LMSans17-Regular-61" d="M 2470 -13 
L 2470 1789 
C 2470 2399 2042 2816 1466 2816 
C 1184 2816 877 2764 525 2559 
L 563 2133 
C 723 2250 998 2438 1459 2438 
C 1786 2438 1984 2185 1984 1782 
L 1984 1536 
C 960 1504 320 1209 320 711 
C 320 452 480 -64 1011 -64 
C 1107 -64 1626 -52 1997 224 
L 1997 -13 
L 2470 -13 
z
M 1984 824 
C 1984 711 1984 559 1792 446 
C 1626 339 1414 326 1325 326 
C 1005 326 787 503 787 723 
C 787 1165 1786 1209 1984 1216 
L 1984 824 
z
" transform="scale(0.015625)"/>
      <path id="LMSans17-Regular-73" d="M 2163 780 
C 2163 1094 1984 1305 1862 1401 
C 1651 1567 1574 1587 1050 1695 
C 960 1708 646 1779 646 2067 
C 646 2431 1050 2431 1139 2431 
C 1555 2431 1811 2303 1984 2207 
L 2061 2623 
C 1683 2803 1389 2816 1197 2816 
C 742 2816 198 2655 198 2009 
C 198 1350 902 1209 1094 1171 
C 1389 1113 1715 1049 1715 723 
C 1715 320 1254 320 1171 320 
C 915 320 563 390 243 620 
L 166 191 
C 531 0 883 -64 1178 -64 
C 1965 -64 2163 413 2163 768 
L 2163 780 
z
" transform="scale(0.015625)"/>
      <path id="LMSans17-Regular-6f" d="M 2829 1356 
C 2829 2175 2221 2816 1504 2816 
C 768 2816 173 2156 173 1356 
C 173 544 787 -64 1498 -64 
C 2227 -64 2829 563 2829 1356 
z
M 2342 1407 
C 2342 684 1926 332 1498 332 
C 1050 332 659 710 659 1407 
C 659 2150 1114 2419 1498 2419 
C 1914 2419 2342 2124 2342 1407 
z
" transform="scale(0.015625)"/>
     </defs>
     <use xlink:href="#LMSans17-Regular-6c" transform="scale(0.996264)"/>
     <use xlink:href="#LMSans17-Regular-61" transform="translate(22.179583 0) scale(0.996264)"/>
     <use xlink:href="#LMSans17-Regular-73" transform="translate(67.10085 0) scale(0.996264)"/>
     <use xlink:href="#LMSans17-Regular-73" transform="translate(103.013632 0) scale(0.996264)"/>
     <use xlink:href="#LMSans17-Regular-6f" transform="translate(138.926414 0) scale(0.996264)"/>
    </g>
   </g>
   <g id="legend_1">
    <g id="patch_8">
     <path d="M 240.838624 45.835998 
L 277.774785 45.835998 
L 277.774785 21.136506 
L 240.838624 21.136506 
z
" style="fill: #ffffff; stroke: #000000; stroke-linejoin: miter"/>
    </g>
    <g id="line2d_49">
     <path d="M 244.038624 27.136506 
L 252.038624 27.136506 
L 260.038624 27.136506 
" style="fill: none; stroke: #009afa; stroke-linejoin: miter"/>
    </g>
    <g id="text_28">
     <!-- y1 -->
     <g transform="translate(266.438624 29.936506) scale(0.08 -0.08)">
      <defs>
       <path id="LMSans17-Regular-79" d="M 2675 2752 
L 2176 2752 
C 1632 1288 1446 694 1434 375 
L 1427 375 
C 1408 688 1126 1455 902 2004 
L 602 2752 
L 83 2752 
L 1216 4 
C 1146 -187 1043 -475 1011 -539 
C 870 -896 774 -896 672 -896 
C 646 -896 442 -890 211 -820 
L 250 -1242 
C 410 -1274 570 -1293 685 -1293 
C 845 -1293 1165 -1293 1459 -507 
L 2675 2752 
z
" transform="scale(0.015625)"/>
       <path id="LMSans17-Regular-31" d="M 2573 0 
L 2573 371 
L 1818 371 
L 1818 4288 
L 1696 4288 
C 1350 3951 947 3903 538 3891 
L 538 3520 
C 723 3526 1024 3539 1325 3673 
L 1325 371 
L 570 371 
L 570 0 
L 2573 0 
z
" transform="scale(0.015625)"/>
      </defs>
      <use xlink:href="#LMSans17-Regular-79" transform="scale(0.996264)"/>
      <use xlink:href="#LMSans17-Regular-31" transform="translate(42.998424 0) scale(0.996264)"/>
     </g>
    </g>
    <g id="line2d_50">
     <path d="M 244.038624 38.286252 
L 252.038624 38.286252 
L 260.038624 38.286252 
" style="fill: none; stroke: #e36f47; stroke-linejoin: miter"/>
    </g>
    <g id="text_29">
     <!-- y2 -->
     <g transform="translate(266.438624 41.086252) scale(0.08 -0.08)">
      <defs>
       <path id="LMSans17-Regular-32" d="M 2701 0 
L 2701 435 
L 1613 435 
C 1536 435 1459 428 1382 428 
L 742 428 
L 742 435 
L 1651 1353 
C 1830 1538 2099 1761 2285 1984 
C 2464 2201 2701 2507 2701 2953 
C 2701 3655 2227 4288 1421 4288 
C 787 4288 422 3891 250 3272 
L 499 2928 
C 640 3508 838 3878 1338 3878 
C 1888 3878 2195 3431 2195 2940 
C 2195 2354 1747 1901 1408 1563 
L 301 409 
L 301 0 
L 2701 0 
z
" transform="scale(0.015625)"/>
      </defs>
      <use xlink:href="#LMSans17-Regular-79" transform="scale(0.996264)"/>
      <use xlink:href="#LMSans17-Regular-32" transform="translate(42.998424 0) scale(0.996264)"/>
     </g>
    </g>
   </g>
  </g>
 </g>
 <defs>
  <clipPath id="pb40f449671">
   <rect x="30.896424" y="17.136506" width="113.748966" height="85.303515"/>
  </clipPath>
  <clipPath id="p11bff311ee">
   <rect x="168.025819" y="17.136506" width="113.748966" height="85.303515"/>
  </clipPath>
 </defs>
</svg>
